<?xml version="1.0" encoding="UTF-8" standalone="no"?>
<svg
   sodipodi:docname="14 - Fries French.svg"
   inkscape:version="1.1.1 (1:1.1+202109281949+c3084ef5ed)"
   id="svg831"
   version="1.1"
   viewBox="0 0 22.577778 22.577778"
   height="64pt"
   width="64pt"
   inkscape:export-filename="/media/taufikramadhan/Data/Tr Design Studio/Project Design/TR Creative Design/Icon Design/Project Hiring/Icon Icons/010 - Food/Send/2 - Solid/14 - Fries French.png"
   inkscape:export-xdpi="576"
   inkscape:export-ydpi="576"
   xmlns:inkscape="http://www.inkscape.org/namespaces/inkscape"
   xmlns:sodipodi="http://sodipodi.sourceforge.net/DTD/sodipodi-0.dtd"
   xmlns="http://www.w3.org/2000/svg"
   xmlns:svg="http://www.w3.org/2000/svg"
   xmlns:rdf="http://www.w3.org/1999/02/22-rdf-syntax-ns#"
   xmlns:cc="http://creativecommons.org/ns#"
   xmlns:dc="http://purl.org/dc/elements/1.1/">
  <defs
     id="defs825">
    <pattern
       y="0"
       x="0"
       height="6"
       width="6"
       patternUnits="userSpaceOnUse"
       id="EMFhbasepattern" />
    <pattern
       y="0"
       x="0"
       height="6"
       width="6"
       patternUnits="userSpaceOnUse"
       id="EMFhbasepattern-9" />
    <pattern
       y="0"
       x="0"
       height="6"
       width="6"
       patternUnits="userSpaceOnUse"
       id="EMFhbasepattern-0" />
    <pattern
       y="0"
       x="0"
       height="6"
       width="6"
       patternUnits="userSpaceOnUse"
       id="EMFhbasepattern-7" />
    <pattern
       y="0"
       x="0"
       height="6"
       width="6"
       patternUnits="userSpaceOnUse"
       id="EMFhbasepattern-2" />
    <pattern
       y="0"
       x="0"
       height="6"
       width="6"
       patternUnits="userSpaceOnUse"
       id="EMFhbasepattern-98" />
    <pattern
       y="0"
       x="0"
       height="6"
       width="6"
       patternUnits="userSpaceOnUse"
       id="EMFhbasepattern-6" />
    <pattern
       y="0"
       x="0"
       height="6"
       width="6"
       patternUnits="userSpaceOnUse"
       id="EMFhbasepattern-01" />
    <pattern
       y="0"
       x="0"
       height="6"
       width="6"
       patternUnits="userSpaceOnUse"
       id="EMFhbasepattern-07" />
    <pattern
       y="0"
       x="0"
       height="6"
       width="6"
       patternUnits="userSpaceOnUse"
       id="EMFhbasepattern-8" />
    <pattern
       y="0"
       x="0"
       height="6"
       width="6"
       patternUnits="userSpaceOnUse"
       id="EMFhbasepattern-4" />
    <pattern
       y="0"
       x="0"
       height="6"
       width="6"
       patternUnits="userSpaceOnUse"
       id="EMFhbasepattern-40" />
    <pattern
       y="0"
       x="0"
       height="6"
       width="6"
       patternUnits="userSpaceOnUse"
       id="EMFhbasepattern-08" />
    <pattern
       y="0"
       x="0"
       height="6"
       width="6"
       patternUnits="userSpaceOnUse"
       id="EMFhbasepattern-04" />
    <pattern
       y="0"
       x="0"
       height="6"
       width="6"
       patternUnits="userSpaceOnUse"
       id="EMFhbasepattern-014" />
    <pattern
       y="0"
       x="0"
       height="6"
       width="6"
       patternUnits="userSpaceOnUse"
       id="EMFhbasepattern-27" />
    <pattern
       y="0"
       x="0"
       height="6"
       width="6"
       patternUnits="userSpaceOnUse"
       id="EMFhbasepattern-09" />
    <pattern
       y="0"
       x="0"
       height="6"
       width="6"
       patternUnits="userSpaceOnUse"
       id="EMFhbasepattern-5" />
    <pattern
       y="0"
       x="0"
       height="6"
       width="6"
       patternUnits="userSpaceOnUse"
       id="EMFhbasepattern-018" />
  </defs>
  <sodipodi:namedview
     inkscape:document-rotation="0"
     inkscape:snap-global="true"
     inkscape:snap-nodes="false"
     inkscape:bbox-nodes="true"
     inkscape:snap-bbox="true"
     showguides="true"
     inkscape:snap-midpoints="true"
     inkscape:snap-smooth-nodes="true"
     inkscape:snap-intersection-paths="true"
     inkscape:object-paths="true"
     inkscape:showpageshadow="false"
     inkscape:pagecheckerboard="true"
     inkscape:window-maximized="1"
     inkscape:window-y="31"
     inkscape:window-x="0"
     inkscape:window-height="705"
     inkscape:window-width="1366"
     units="pt"
     showgrid="false"
     inkscape:current-layer="layer1"
     inkscape:document-units="pt"
     inkscape:cy="42.666667"
     inkscape:cx="42.580818"
     inkscape:zoom="5.8242188"
     inkscape:pageshadow="2"
     inkscape:pageopacity="0.0"
     borderopacity="1.0"
     bordercolor="#666666"
     pagecolor="#ffffff"
     id="base">
    <inkscape:grid
       id="grid1378"
       type="xygrid" />
    <sodipodi:guide
       inkscape:locked="false"
       id="guide1380"
       orientation="78.000048,0"
       position="0.97013831,21.607643" />
    <sodipodi:guide
       inkscape:locked="false"
       id="guide1382"
       orientation="0,78.000005"
       position="0.97013831,0.97013129" />
    <sodipodi:guide
       inkscape:locked="false"
       id="guide1384"
       orientation="-78.000048,0"
       position="21.607639,0.97013129" />
    <sodipodi:guide
       inkscape:locked="false"
       id="guide1386"
       orientation="0,-78.000005"
       position="21.607639,21.607643" />
  </sodipodi:namedview>
  <metadata
     id="metadata828">
    <rdf:RDF>
      <cc:Work
         rdf:about="">
        <dc:format>image/svg+xml</dc:format>
        <dc:type
           rdf:resource="http://purl.org/dc/dcmitype/StillImage" />
      </cc:Work>
    </rdf:RDF>
  </metadata>
  <g
     transform="translate(0,-274.42223)"
     id="layer1"
     inkscape:groupmode="layer"
     inkscape:label="Icon">
    <path
       id="path13274"
       style="color:#000000;display:inline;fill:#000000;stroke-width:1.30723;stroke-linecap:round;stroke-linejoin:round;stroke-miterlimit:1.5;-inkscape-stroke:none"
       d="m 5.4587097,275.39236 -1.4219952,0.4695 0.8957575,6.67898 h 1.3253932 z m 5.1394493,0.44924 -1.9529637,0.51069 0.030393,3.51547 h 1.0187031 c 0.1899582,6.9e-4 0.3437616,0.15457 0.3445206,0.34452 v 6.25341 c 0.170345,0.0673 0.356064,0.11974 0.55934,0.15604 z m 4.687516,0.56676 v 0.9444 5.18808 h 0.86333 v -4.84288 c 0,-0.20992 0.11505,-0.34525 0.347225,-0.34525 h 0.155371 v -0.94439 z m -2.491363,0.80186 v 0.58164 h 0.206713 c 0.190222,6.8e-4 0.344134,0.15497 0.344522,0.34519 v 7.81387 c 0.169211,-0.16013 0.316245,-0.34126 0.446526,-0.53772 0.488203,-0.73613 0.707014,-1.7106 0.801858,-2.5427 v -5.24144 z m -6.3810742,0.30129 0.5417767,5.02933 h 0.33709 v -2.32856 c 7.608e-4,-0.18995 0.1545622,-0.34376 0.3445216,-0.34452 h 0.3472237 l -0.028367,-2.35625 z m 10.4275122,0.53366 v 4.49567 h 1.043022 l 0.297233,-4.49567 z m -5.552873,0.4391 v 8.19555 c 0.548469,0 0.995135,-0.096 1.365925,-0.26344 v -7.93211 z m -7.953716,0.29115 c -0.5494567,0 -0.9792309,0.50452 -0.8883258,1.0464 l 0.4559855,2.71902 h 1.3321516 l -0.5052997,-3.76542 z m 15.491978,0 -0.251298,3.76542 h 1.101117 l 0.455985,-2.71902 c 0.0909,-0.54188 -0.338864,-1.0464 -0.888325,-1.0464 z m -10.8422892,1.78477 v 2.31031 c 0.09484,0.8321 0.3136539,1.80657 0.8018562,2.5427 0.1591728,0.24001 0.3425046,0.45713 0.561367,0.64109 v -10e-4 -5.49275 z m -4.8699133,2.67307 c -0.035282,0.12157 -0.047753,0.25177 -0.029713,0.38506 l 0.8349567,6.18651 h 4.2558517 c 0,-0.21449 0.128292,-0.52615 0.398564,-0.687 0.2527132,-0.1504 0.5885025,-0.23021 1.1132761,-0.2844 0.391647,-0.47741 0.978062,-0.75919 1.602363,-0.7593 0.624299,-1.2e-4 1.211648,0.28171 1.603712,0.7593 0.52287,0.0541 0.856228,0.13445 1.108548,0.2844 0.270663,0.16085 0.401266,0.47234 0.401266,0.687 h 4.255853 l 0.834957,-6.18651 c 0.01801,-0.13329 0.0056,-0.26355 -0.02973,-0.38506 H 15.18367 c -0.11522,0.82917 -0.285346,1.76479 -0.814691,2.56298 -0.593227,0.89449 -1.597197,1.57533 -3.081101,1.57533 -1.483907,0 -2.4865243,-0.68084 -3.0797512,-1.57533 -0.5293463,-0.79819 -0.6987965,-1.73381 -0.8140161,-2.56298 z m 2.1758903,1.31999 0.5877129,4.3403 c 0.024785,0.18885 -0.1077945,0.36222 -0.2965579,0.38775 -0.1886313,0.0248 -0.3618817,-0.10746 -0.387757,-0.29588 l -0.5870359,-4.34029 c -0.026838,-0.18985 0.105886,-0.36531 0.2958847,-0.39114 0.2147106,-0.0214 0.3618059,0.14721 0.3877532,0.29926 z m 5.9980502,4.21262 c -0.452049,10e-4 -0.875998,0.22398 -1.134218,0.59514 -0.04526,0.0784 -0.1558212,0.13968 -0.2904794,0.15065 -0.5437611,0.0499 -0.8283382,0.1516 -0.9349366,0.20131 -0.06314,0.0294 -0.060799,0.018 -0.060799,0.0919 v 2.07321 c 0,0.19759 0.1496509,0.34723 0.3472223,0.34723 h 4.1484417 c 0.197574,0 0.347224,-0.14964 0.347224,-0.34723 v -2.07321 c 0,-0.0739 0.04066,-0.0316 -0.0608,-0.0919 -0.100931,-0.06 -0.389219,-0.15321 -0.928856,-0.20334 -0.09875,-0.0118 -0.215103,-0.0303 -0.297234,-0.14862 -0.258785,-0.37197 -0.682428,-0.59506 -1.135569,-0.59514 z m -7.2748064,1.73071 0.116187,0.86334 h 4.0457622 v -0.86334 z m 10.3896834,0 v 0.86334 h 4.045762 l 0.116187,-0.86334 z m -10.1802684,1.55507 0.3580332,2.65012 c 0.1024087,0.75784 0.7545317,1.3281 1.5192717,1.3281 h 3.1378461 c 0.1409394,6.9e-4 0.2681425,-0.0845 0.3215535,-0.21482 0.2825181,-0.69519 0.9468939,-1.18692 1.7286869,-1.18692 0.781791,0 1.448197,0.49173 1.730712,1.18692 0.05341,0.13046 0.180614,0.21541 0.321554,0.21482 h 3.13582 c 0.764738,0 1.418885,-0.57026 1.521297,-1.3281 l 0.358032,-2.65012 h -3.96875 c -0.08415,0.48768 -0.513748,0.86537 -1.023431,0.86537 H 9.2146685 c -0.5096803,0 -0.9392806,-0.37769 -1.0234312,-0.86537 z m 2.1988584,0.85321 0.1094416,0.82212 c 0.018027,0.13364 0.1258736,0.22697 0.2607554,0.22697 h 0.3472236 c 0.1910197,7e-4 0.3452668,0.15621 0.3445203,0.34723 -7.255e-4,0.18997 -0.1545543,0.34378 -0.3445203,0.34452 H 6.791541 c -0.4759105,0 -0.8834996,-0.3552 -0.9470965,-0.82685 l -0.1101084,-0.82009 c -0.026406,-0.18985 0.1065919,-0.36497 0.3100342,-0.38103 0.2034422,-0.0161 0.3536709,0.11294 0.3769828,0.28713 z"
       sodipodi:nodetypes="cccccccccccccccccccccccccccscccccccccccccccccccccsccccsccccscccsccccccccccscscccccssscccccccccccccssssssccccccccccccccccsccsccscccssccccscscscccc" />
  </g>
</svg>
