<svg aria-hidden="true" focusable="false" xmlns="http://www.w3.org/2000/svg" width="40" height="40" viewBox="0 0 135.5 135.5"><path d="M36 123l-3-7-7 2-8 3a879 879 0 0116-39l-3-2c-2-2-3-4-3-7l-1-2-4-6v-7-1c-2-3-3-9-1-12l1-2v-7l4-5 1-1c0-4 3-9 7-11l2-2c1-3 5-6 9-6l2-1 5-4h6l3-1h11l3 1h6l6 4 2 1a13 13 0 019 7l2 2c3 1 6 5 7 9l1 2 3 5v7l1 2c2 3 2 8 0 12v2l-2 9-2 3-1 1c0 3-4 9-7 10l-1 1 1 1 17 37a149 149 0 01-16-5 159 159 0 00-6 15l-8-18-8-17h-7a12 12 0 01-11 0h-3a19 19 0 01-2 0h-1l-9 17-8 18-3-8zm10-15a4494 4494 0 006-13l-1-1-3-2-3-1-6-3-1-1-6 13-7 14s3 0 5-2 6-1 6-1l1 4 3 6 6-13zm52 8l2-5 5 1 5 2-6-14-7-13-1 1-6 3-3 1-2 2-1 1 5 11a3374 3374 0 016 13l1 2 2-5zM70 93l4-2v-1l1 1c2 2 5 1 8-1 2-1 3-2 3-4 2 2 6 1 8-2 2-1 2-3 2-4v-1h1c1 0 3 0 4-2 2-2 3-3 3-5l-1-3h1c3 0 5-5 5-9l-1-2-1-1c2-1 4-3 4-6s-1-5-3-6h-1l1-1v-7l-2-3-3-1v-1-5c-1-3-4-5-7-4 1-2-1-5-3-7s-5-2-7-1v1-1l-2-3c-3-2-6-3-8-2l-2 1v1l-1-1c0-2-2-3-5-3s-6 1-6 3h-1c-2-2-6-2-9 1l-2 3v1l-1-1h-5c-3 2-5 5-4 7l-1 1c-2-2-7 2-7 7v2l1 1h-1c-2 0-3 1-4 3-2 3-2 7 0 8l1 1h-1c-2 1-3 3-3 6s1 5 3 6v1c-2 2-2 6 0 9l4 2 1-1-1 1v3c0 2 0 3 2 5s3 2 5 2h1v1c-1 1 0 3 1 4 3 3 6 4 8 2h1l2 4c3 2 7 3 9 1l1-1v1c1 2 5 3 8 2zm-6-13a30 30 0 01-26-35 30 30 0 0151-15c5 5 8 13 8 21l-1 9a30 30 0 01-32 20zm10-4c9-2 16-10 19-19V45c-2-8-7-14-14-18-4-2-7-2-11-2l-7 1c-9 2-16 9-18 18v13a26 26 0 0031 19zm-18-8a346 346 0 001-13l-5-5-4-4 6-2 7-1a103 103 0 006-12 105 105 0 016 12l7 1h7l-1 1a3137 3137 0 01-8 10l2 12-5-2-6-3-7 3-6 3zm9-9l3-2 3 2 4 2-1-4-1-4 3-3 3-3h-4l-4-1-2-3-2-4a107 107 0 00-3 8h-4l-4 1 3 3 3 3-1 7h1l3-2z"/></svg>