<svg aria-hidden="true" focusable="false" xmlns="http://www.w3.org/2000/svg" viewBox="0 0 482.6 482.6" width="22" height="23"><path d="M98 321c48 57 105 102 171 133 25 12 58 26 95 28l7 1c25 0 45-9 61-27l20-20 14-14c21-22 21-51 0-72l-61-60a49 49 0 00-35-16c-13 0-25 5-35 16l-36 35-10-5-11-6c-33-20-62-47-91-82-14-18-23-33-30-49l27-26 9-9c11-11 16-24 16-36s-5-25-16-36l-30-30-10-10-21-21A50 50 0 0097 0C85 0 72 5 62 16L24 53a77 77 0 00-23 49c-2 24 3 49 14 80 18 48 44 92 83 139zM26 104c1-13 6-24 16-34l37-37c6-6 12-9 18-9s13 3 18 9l20 20 10 10 30 30c6 6 10 13 10 19s-4 12-10 19l-9 9-28 27c-8 9-7 17-5 23 8 19 19 36 35 57 30 37 62 66 97 88l13 7 11 6 1 1c3 2 6 3 10 3 8 0 13-6 15-7l37-38c6-5 12-9 18-9 8 0 14 5 18 9l60 61c12 12 12 25 0 37l-13 13c-7 7-15 14-21 22a55 55 0 01-48 18c-33-2-64-15-87-26A486 486 0 0138 174c-10-28-14-50-12-70z"/></svg>