<svg aria-hidden="true" focusable="false" xmlns="http://www.w3.org/2000/svg" width="40" height="40" viewBox="0 0 135.5 135.5"><path d="M17 119c-8-1-14-6-16-14L0 73V40a19 19 0 0113-15l1-2v-3l1-1h21l1 1 1 2v2h14l1-2 3-5c1-3 4-5 8-6h35l6 4 5 8v1h4c8 0 11 2 16 6l5 8v67c-2 7-7 12-14 14H17zm103-6c4-1 8-4 9-9l1-2V72c0-34 0-32-2-35l-5-6-10-1c-7 0-6 0-8-5s-3-7-6-8l-1-1H65l-5 4-2 5-2 4-10 1a188 188 0 01-13-1v-3l-1-2H19v4l-4 3c-4 1-8 4-9 9l-1 1v61l1 2c1 5 5 8 10 9a878 878 0 00104 0zm-43-8l-7-1a35 35 0 1146-40v13a35 35 0 01-39 28zm10-5a30 30 0 10-12-59 30 30 0 0012 59zM17 48c-5-2-4-10 2-10l4 1c2 3 2 7-2 9h-4z"/></svg>