<?xml version="1.0" encoding="UTF-8" standalone="no"?><svg viewBox="0 0 64 64" xmlns="http://www.w3.org/2000/svg" xmlns:xlink="http://www.w3.org/1999/xlink"><style>:root>svg{display:none}:root>svg:target{display:block}</style><svg viewBox="0 0 22.578 22.578" id="1" xmlns="http://www.w3.org/2000/svg"><path style="-inkscape-stroke:none" d="M5.459.97l-1.422.47.895 6.679h1.326zm5.14.45l-1.954.51.03 3.516h1.02c.19 0 .343.154.344.344v6.253c.17.068.356.12.56.156zm4.687.566V8.12h.863V3.276c0-.21.115-.346.347-.346h.156v-.944zm-2.492.802v.582h.207c.19 0 .344.155.345.345v7.814c.169-.16.316-.342.446-.538.488-.736.707-1.71.802-2.543V3.207zm-6.38.301l.541 5.03h.337V5.79c0-.19.155-.344.345-.344h.347l-.029-2.357zm10.427.534v4.496h1.043l.297-4.496zm-5.553.439v8.196c.548 0 .995-.096 1.366-.264V4.062zm-7.954.291c-.55 0-.98.505-.888 1.047l.456 2.719h1.332l-.505-3.766zm15.492 0l-.251 3.766h1.101l.456-2.72a.906.906 0 00-.888-1.046zM7.984 6.138v2.31c.095.832.314 1.807.802 2.543.159.24.342.457.561.641V6.137zm-4.87 2.673a.93.93 0 00-.03.385l.835 6.187h4.256a.85.85 0 01.399-.687c.252-.15.588-.23 1.113-.285a2.073 2.073 0 013.206 0c.523.054.856.135 1.108.285.271.16.402.472.402.687h4.256l.835-6.187a.93.93 0 00-.03-.385h-4.28c-.116.83-.286 1.765-.815 2.563-.593.894-1.597 1.575-3.081 1.575s-2.487-.68-3.08-1.575c-.53-.798-.699-1.734-.814-2.563zm2.176 1.32l.588 4.34a.346.346 0 01-.685.092l-.587-4.34a.346.346 0 01.296-.391.363.363 0 01.388.299zm5.998 4.213a1.387 1.387 0 00-1.134.595c-.046.078-.156.14-.29.15-.545.05-.83.152-.936.202-.063.03-.06.018-.06.092v2.073c0 .197.15.347.347.347h4.148a.34.34 0 00.347-.347v-2.073c0-.074.041-.032-.06-.092s-.39-.153-.93-.204c-.098-.011-.214-.03-.297-.148a1.384 1.384 0 00-1.135-.595zm-7.275 1.73l.116.864h4.046v-.864zm10.39 0v.864h4.046l.116-.864zM4.223 17.63l.358 2.65A1.537 1.537 0 006.1 21.609h3.138c.14 0 .268-.085.321-.215.283-.695.947-1.187 1.729-1.187.782 0 1.448.492 1.73 1.187.054.13.181.215.322.215h3.136a1.54 1.54 0 001.521-1.328l.358-2.65h-3.968a1.047 1.047 0 01-1.024.865H9.215c-.51 0-.94-.378-1.024-.866zm2.198.854l.11.822a.258.258 0 00.26.227h.348a.346.346 0 010 .691h-.347a.959.959 0 01-.948-.826l-.11-.82a.333.333 0 01.31-.382c.204-.016.354.113.377.288z" color="#000"/></svg><svg aria-hidden="true" viewBox="0 0 135.5 135.5" id="icon-about" xmlns="http://www.w3.org/2000/svg"><path d="M36 123l-3-7-7 2-8 3a879 879 0 0116-39l-3-2c-2-2-3-4-3-7l-1-2-4-6v-8c-2-3-3-9-1-12l1-2v-7l4-5 1-1c0-4 3-9 7-11l2-2c1-3 5-6 9-6l2-1 5-4h6l3-1h11l3 1h6l6 4 2 1a13 13 0 019 7l2 2c3 1 6 5 7 9l1 2 3 5v7l1 2c2 3 2 8 0 12v2l-2 9-2 3-1 1c0 3-4 9-7 10l-1 1 1 1 17 37a149 149 0 01-16-5 159 159 0 00-6 15l-8-18-8-17h-7a12 12 0 01-11 0h-3a19 19 0 01-2 0h-1l-9 17-8 18-3-8zm10-15a4494 4494 0 006-13l-1-1-3-2-3-1-6-3-1-1-6 13-7 14s3 0 5-2 6-1 6-1l1 4 3 6 6-13zm52 8l2-5 5 1 5 2-6-14-7-13-1 1-6 3-3 1-2 2-1 1 5 11a3374 3374 0 016 13l1 2 2-5zM70 93l4-2v-1l1 1c2 2 5 1 8-1 2-1 3-2 3-4 2 2 6 1 8-2 2-1 2-3 2-4v-1h1c1 0 3 0 4-2 2-2 3-3 3-5l-1-3h1c3 0 5-5 5-9l-1-2-1-1c2-1 4-3 4-6s-1-5-3-6h-1l1-1v-7l-2-3-3-1v-6c-1-3-4-5-7-4 1-2-1-5-3-7s-5-2-7-1v1-1l-2-3c-3-2-6-3-8-2l-2 1v1l-1-1c0-2-2-3-5-3s-6 1-6 3h-1c-2-2-6-2-9 1l-2 3v1l-1-1h-5c-3 2-5 5-4 7l-1 1c-2-2-7 2-7 7v2l1 1h-1c-2 0-3 1-4 3-2 3-2 7 0 8l1 1h-1c-2 1-3 3-3 6s1 5 3 6v1c-2 2-2 6 0 9l4 2 1-1-1 1v3c0 2 0 3 2 5s3 2 5 2h1v1c-1 1 0 3 1 4 3 3 6 4 8 2h1l2 4c3 2 7 3 9 1l1-1v1c1 2 5 3 8 2zm-6-13a30 30 0 01-26-35 30 30 0 0151-15c5 5 8 13 8 21l-1 9a30 30 0 01-32 20zm10-4c9-2 16-10 19-19V45c-2-8-7-14-14-18-4-2-7-2-11-2l-7 1c-9 2-16 9-18 18v13a26 26 0 0031 19zm-18-8a346 346 0 001-13l-5-5-4-4 6-2 7-1a103 103 0 006-12 105 105 0 016 12l7 1h7l-1 1a3137 3137 0 01-8 10l2 12-5-2-6-3-7 3-6 3zm9-9l3-2 3 2 4 2-1-4-1-4 3-3 3-3h-4l-4-1-2-3-2-4a107 107 0 00-3 8h-4l-4 1 3 3 3 3-1 7h1l3-2z"/></svg><svg aria-hidden="true" viewBox="0 0 135.5 135.5" id="icon-contact" xmlns="http://www.w3.org/2000/svg"><path d="M22 135l-3-2c-2-2-2-2-2-12v-8l-3-1h-3c-2-1-4-4-4-7 1-4 3-7 8-7h2V75h-2c-4-1-6-2-7-4v-6c1-3 3-4 7-4h2V38h-2l-4-1a7 7 0 010-13l3-1h3V4l4-3 52-1h50l1 1 4 3v127l-4 4H22zm101-4c2-1 2 5 2-63s0-63-2-64h-1L73 3a1390 1390 0 00-52 2l-1 1v19l-1 1h-3c-3 0-4 1-5 3-1 1 0 3 1 4l5 1 3 1v28l-1 1h-3c-3 0-4 1-5 2v3c1 2 2 2 5 2l3 1h1v28l-3 1c-3 0-4 0-5 2-1 1-2 2-1 4s2 2 5 2l3 1h1v20l1 1 2 1h99zm-94-7l-1-7v-7h1l3-1c4 0 4 0 5-2l1-4c-2-2-2-2-6-2l-4-1V72h1l3-1c4 0 5 0 6-2v-2c-1-2-2-3-6-3h-3l-1-1V35l4-1h4c2-2 2-4 1-6-1-1-1-2-5-2h-3l-1-1v-7l1-7h87l1 1v111l-1 1v1H72l-43-1zm84-56V14H31l1 4v5h2l6 2c2 3 2 6 1 9-2 2-4 4-7 4h-3v23h3l6 2 2 5-2 4c-2 2-3 3-6 3h-3v23h3c3 0 5 1 7 4 1 3 1 6-1 8s-3 2-6 2l-2 1v4l-1 4h82zm-31 38c-3-1-7-4-11-10L60 76c-4-11-8-25-8-32 1-4 1-5 3-7l13-8h4l6 7c3 4 3 8 3 12l-1 3-4 2c-1 1-3 2-2 3l11 25 3-1 4-1 6 3c3 4 4 8 5 14 0 5 0 5-5 7-5 3-13 4-16 3zm7-4l8-2 2-1v-3l-2-9-5-5-2 1-4 1-4-1-12-27c0-2 0-3 2-4 0-1 1-2 3-2l2-1v-7l-4-7c-3-3-3-3-6-1-4 1-9 5-11 7l1 11c1 7 3 16 6 22 5 12 13 24 18 28h8z"/></svg><svg aria-hidden="true" viewBox="0 0 512 512" id="icon-geo" xmlns="http://www.w3.org/2000/svg"><path d="M313.9 376.7c41.3-68.5 93.5-164.8 93.5-214.3C407.4 78.9 339.5 11 256 11a151.5 151.5 0 00-151.4 151.4c0 49.5 52.2 145.8 93.5 214.3-49 3.7-160.5 17-160.5 61.1 0 43.4 113.2 63.2 218.5 63.2 105.2 0 218.5-19.8 218.5-63.2-.1-44.1-111.7-57.4-160.7-61.1zM125.5 162.4c0-72 58.6-130.6 130.5-130.6 72 0 130.6 58.6 130.6 130.6 0 62.9-100.2 220.7-130.6 267.1-30.4-46.4-130.5-204.2-130.5-267.1zM256 480.1c-127.9 0-197.6-28-197.6-42.4 0-11.1 46-35 152-41.1 19.9 32.1 35 54.8 37 57.5 2.7 3.6 10.6 7.9 17.3 0 2.1-2.5 17.1-25.4 37-57.5 106 6.1 152 29.9 152 41.1-.1 14.5-69.8 42.4-197.7 42.4z"/><path d="M321.9 162.4a65.9 65.9 0 10-131.8 0 65.9 65.9 0 00131.8 0zm-111 0a45.1 45.1 0 1190.2 0 45.1 45.1 0 01-90.2 0z"/></svg><svg aria-hidden="true" viewBox="0 0 479.1 479.1" id="icon-mail" xmlns="http://www.w3.org/2000/svg"><path d="M240 0a240 240 0 10127 442l-16-25A209 209 0 0130 240a210 210 0 01419 0v14a45 45 0 01-90 0V150h-30v11a119 119 0 00-209 79 119 119 0 00224 58 75 75 0 00135-44v-14C479 107 372 0 240 0zm0 329a90 90 0 110-179 90 90 0 010 179z"/></svg><svg aria-hidden="true" viewBox="0 0 135.5 135.5" id="icon-photo" xmlns="http://www.w3.org/2000/svg"><path d="M17 119c-8-1-14-6-16-14L0 73V40a19 19 0 0113-15l1-2v-3l1-1h21l1 1 1 2v2h14l1-2 3-5c1-3 4-5 8-6h35l6 4 5 8v1h4c8 0 11 2 16 6l5 8v67c-2 7-7 12-14 14H17zm103-6c4-1 8-4 9-9l1-2V72c0-34 0-32-2-35l-5-6-10-1c-7 0-6 0-8-5s-3-7-6-8l-1-1H65l-5 4-2 5-2 4-10 1a188 188 0 01-13-1v-3l-1-2H19v4l-4 3c-4 1-8 4-9 9l-1 1v61l1 2c1 5 5 8 10 9a878 878 0 00104 0zm-43-8l-7-1a35 35 0 1146-40v13a35 35 0 01-39 28zm10-5a30 30 0 10-12-59 30 30 0 0012 59zM17 48c-5-2-4-10 2-10l4 1c2 3 2 7-2 9h-4z"/></svg><svg aria-hidden="true" viewBox="0 0 482.6 482.6" id="icon-tel" xmlns="http://www.w3.org/2000/svg"><path d="M98 321c48 57 105 102 171 133 25 12 58 26 95 28l7 1c25 0 45-9 61-27l20-20 14-14c21-22 21-51 0-72l-61-60a49 49 0 00-35-16c-13 0-25 5-35 16l-36 35-10-5-11-6c-33-20-62-47-91-82-14-18-23-33-30-49l27-26 9-9c11-11 16-24 16-36s-5-25-16-36l-30-30-10-10-21-21A50 50 0 0097 0C85 0 72 5 62 16L24 53a77 77 0 00-23 49c-2 24 3 49 14 80 18 48 44 92 83 139zM26 104c1-13 6-24 16-34l37-37c6-6 12-9 18-9s13 3 18 9l20 20 10 10 30 30c6 6 10 13 10 19s-4 12-10 19l-9 9-28 27c-8 9-7 17-5 23 8 19 19 36 35 57 30 37 62 66 97 88l13 7 11 6 1 1c3 2 6 3 10 3 8 0 13-6 15-7l37-38c6-5 12-9 18-9 8 0 14 5 18 9l60 61c12 12 12 25 0 37l-13 13c-7 7-15 14-21 22a55 55 0 01-48 18c-33-2-64-15-87-26A486 486 0 0138 174c-10-28-14-50-12-70z"/></svg></svg>