<svg xmlns="http://www.w3.org/2000/svg" width="137" height="72" viewBox="0 0 137 72" fill="none"><path d="M4.96 61.5h3.14c.5 0 .74-.03.97-.13a1.43 1.43 0 0 0 0-2.69 2.3 2.3 0 0 0-.98-.14h-3.13v2.97Zm0 6.5h-1.87v-11.2h5.24c.87 0 1.44.15 1.92.43.97.52 1.6 1.53 1.6 2.8a3.1 3.1 0 0 1-1.6 2.78c-.5.28-1.05.43-1.92.43h-3.37v4.76Zm13.9-11.2h2.1l3.04 5.74 2.95-5.74h2.1l-4.31 8.1a9 9 0 0 1-1.38 2.12 3 3 0 0 1-2.22 1 3.2 3.2 0 0 1-1.87-.6l.95-1.58c.28.2.61.3.95.3.65 0 1.05-.38 1.56-1.3 0-.03.26-.47.26-.47l-4.12-7.57Zm17.77 0h1l4.86 5.83 4.84-5.83h1.02v11.2h-1.88v-7.65l-3.98 4.87-4-4.87v7.65h-1.86v-11.2Zm19.7-.01h9.46v1.75h-3.8v9.46h-1.88v-9.46h-3.78v-1.75Zm25.23 11.21v-7.82l-6.78 7.82h-1.02v-11.2h1.88v7.8l6.78-7.8h1.02v11.2h-1.88Zm19.21-3.33a3.2 3.2 0 0 1-1.65 2.9 3.9 3.9 0 0 1-1.96.43h-5.13v-11.2h7.73v1.74h-5.86v2.81h3.26c.88 0 1.47.16 1.95.44a3.2 3.2 0 0 1 1.66 2.88Zm-1.85 0c0-.7-.42-1.2-.98-1.45a2.5 2.5 0 0 0-1-.14h-3.04v3.19h3.04c.51 0 .77-.05 1-.15.57-.24.98-.75.98-1.45Zm9.93-7.87h7.65v1.73h-5.77v2.46h4.47v1.72h-4.47v3.56h5.77v1.73h-7.65v-11.2Zm15.25-.01h9.47v1.75h-3.8v9.46h-1.88v-9.46h-3.8v-1.75Z" fill="#fff"/><mask id="a" style="mask-type:luminance" maskUnits="userSpaceOnUse" x="0" y="0" width="137" height="48"><path d="M137 0h-137v48h137v-48Z" fill="#fff"/></mask><g mask="url(#a)"><path d="M.15 27.91c.25-.05 24.67-5.88 43.05-14.03 2.04-.9 3.7-1.44 5.1-1.7-1.57 1.58-10.76 5.5-3.42 6.2 6.74.64-4.36 8.63-9.45 11.54-13.38 4.24-22.06 5.9-22.22 5.94l.19.98c.04-.01.82-.16 2.23-.47 7.37-1.63 32.13-7.75 60.54-21.72 3.99-1.96 7.24-3.04 9.97-3.45-.8 4.12-10.09 13.22 4.75 15.52 13.53 2.1-13.6 7.42-23.72 10.13-1.46.39-2.56.72-3.14.99-4.46 2.05 47.44.2 70.65.11.75.03 1.53.04 2.32.04v-1c-20.73 0-28.07-9.48-33.97-17.1-6.13-7.9-10.97-14.16-27.3-6.13a291.6 291.6 0 0 1-11.5 5.33c-3.42-1.22-5.5-2.97-7.31-4.5-3.38-2.87-5.82-4.94-13.99-1.32-18.33 8.13-42.69 13.94-42.93 14l.15.64Z" fill="#FDFDFD"/></g></svg>