<svg xmlns="http://www.w3.org/2000/svg" viewBox="0 0 117 92"><path fill="#1e1d5f" d="M107.8 51.6c0 20.9-21.7 39.3-47.6 39.3S11.8 72.5 11.8 51.6c0-8.4 2.5-15.9 8.4-22.6 5-5.8 12.5-10.9 20.9-13.4 5.8-1.7 12.5-2.5 19.2-2.5 25.8-.8 47.5 16.8 47.5 38.5z"/><path fill="#1e1d5f" d="M97 .6c3.3 9.2 2.5 19.2 0 28.4L76.1 17.4C85.3 8.2 92.8 1.5 97 .6zM20.9 2.3c7.5 3.3 14.2 9.2 20 15.9l-20 12.5c-4.1-10-5-20 0-28.4z"/><ellipse fill="#fff" cx="76.9" cy="49.1" rx="9.2" ry="6.7"/><ellipse fill="#fff" cx="40.2" cy="49.1" rx="9.2" ry="6.7"/><ellipse fill="#1e1d5f" cx="40.2" cy="50.8" rx="1.7" ry="4.2"/><ellipse fill="#1e1d5f" cx="76.9" cy="50.8" rx="1.7" ry="4.2"/></svg>